<svg xmlns="http://www.w3.org/2000/svg" width="900" height="520" viewBox="0 0 900 520">
<rect width="100%" height="100%" fill="white"/>
<text x="88" y="30" font-family="Arial" font-size="20" font-weight="bold">Median end-to-end task time</text>
<line x1="88" y1="420.0" x2="860" y2="420.0" stroke="#dddddd"/>
<text x="78" y="424.0" text-anchor="end" font-family="Arial" font-size="11">0</text>
<line x1="88" y1="348.4" x2="860" y2="348.4" stroke="#dddddd"/>
<text x="78" y="352.4" text-anchor="end" font-family="Arial" font-size="11">14.8</text>
<line x1="88" y1="276.8" x2="860" y2="276.8" stroke="#dddddd"/>
<text x="78" y="280.8" text-anchor="end" font-family="Arial" font-size="11">29.6</text>
<line x1="88" y1="205.2" x2="860" y2="205.2" stroke="#dddddd"/>
<text x="78" y="209.2" text-anchor="end" font-family="Arial" font-size="11">44.3</text>
<line x1="88" y1="133.6" x2="860" y2="133.6" stroke="#dddddd"/>
<text x="78" y="137.6" text-anchor="end" font-family="Arial" font-size="11">59.1</text>
<line x1="88" y1="62.0" x2="860" y2="62.0" stroke="#dddddd"/>
<text x="78" y="66.0" text-anchor="end" font-family="Arial" font-size="11">73.9</text>
<line x1="88" y1="62" x2="88" y2="420" stroke="#222"/>
<line x1="88" y1="420" x2="860" y2="420" stroke="#222"/>
<text x="20" y="241" transform="rotate(-90 20 241)" font-family="Arial" font-size="13">seconds</text>
<polyline fill="none" stroke="#177E89" stroke-width="2.5" points="88.0,346.1 281.0,345.2 474.0,395.2 667.0,255.9 860.0,257.7"/>
<circle cx="88.0" cy="346.1" r="4" fill="#177E89"/>
<circle cx="281.0" cy="345.2" r="4" fill="#177E89"/>
<circle cx="474.0" cy="395.2" r="4" fill="#177E89"/>
<circle cx="667.0" cy="255.9" r="4" fill="#177E89"/>
<circle cx="860.0" cy="257.7" r="4" fill="#177E89"/>
<line x1="640" y1="80" x2="665" y2="80" stroke="#177E89" stroke-width="3"/>
<text x="672" y="84" font-family="Arial" font-size="12">3090 · gemma3:12b</text>
<polyline fill="none" stroke="#E07A5F" stroke-width="2.5" points="88.0,284.7 281.0,271.8 474.0,384.0 667.0,79.4 860.0,79.0"/>
<circle cx="88.0" cy="284.7" r="4" fill="#E07A5F"/>
<circle cx="281.0" cy="271.8" r="4" fill="#E07A5F"/>
<circle cx="474.0" cy="384.0" r="4" fill="#E07A5F"/>
<circle cx="667.0" cy="79.4" r="4" fill="#E07A5F"/>
<circle cx="860.0" cy="79.0" r="4" fill="#E07A5F"/>
<line x1="640" y1="99" x2="665" y2="99" stroke="#E07A5F" stroke-width="3"/>
<text x="672" y="103" font-family="Arial" font-size="12">spark · gemma3:12b</text>
<text x="88.0" y="443" text-anchor="middle" font-family="Arial" font-size="11">agent_loop</text>
<text x="281.0" y="443" text-anchor="middle" font-family="Arial" font-size="11">engineering_validity</text>
<text x="474.0" y="443" text-anchor="middle" font-family="Arial" font-size="11">interactive</text>
<text x="667.0" y="443" text-anchor="middle" font-family="Arial" font-size="11">large_context</text>
<text x="860.0" y="443" text-anchor="middle" font-family="Arial" font-size="11">overnight</text>
</svg>