<?xml version="1.0" encoding="utf-8" standalone="no"?>
<!DOCTYPE svg PUBLIC "-//W3C//DTD SVG 1.1//EN"
  "http://www.w3.org/Graphics/SVG/1.1/DTD/svg11.dtd">
<svg xmlns:xlink="http://www.w3.org/1999/xlink" width="720pt" height="446.4pt" viewBox="0 0 720 446.4" xmlns="http://www.w3.org/2000/svg" version="1.1">
 <metadata>
  <rdf:RDF xmlns:dc="http://purl.org/dc/elements/1.1/" xmlns:cc="http://creativecommons.org/ns#" xmlns:rdf="http://www.w3.org/1999/02/22-rdf-syntax-ns#">
   <cc:Work>
    <dc:type rdf:resource="http://purl.org/dc/dcmitype/StillImage"/>
    <dc:format>image/svg+xml</dc:format>
    <dc:creator>
     <cc:Agent>
      <dc:title>Matplotlib v3.10.8, https://matplotlib.org/</dc:title>
     </cc:Agent>
    </dc:creator>
   </cc:Work>
  </rdf:RDF>
 </metadata>
 <defs>
  <style type="text/css">*{stroke-linejoin: round; stroke-linecap: butt}</style>
 </defs>
 <g id="figure_1">
  <g id="patch_1">
   <path d="M 0 446.4
L 720 446.4
L 720 0
L 0 0
z
" style="fill: #ffffff"/>
  </g>
  <g id="axes_1">
   <g id="patch_2">
    <path d="M 93.6 370.512
L 684 370.512
L 684 98.208
L 93.6 98.208
z
" style="fill: #ffffff"/>
   </g>
   <g id="matplotlib.axis_1">
    <g id="xtick_1">
     <g id="line2d_1">
      <defs>
       <path id="meb9a59bfaf" d="M 0 0
L 0 3.5
" style="stroke: #000000; stroke-width: 0.8"/>
      </defs>
      <g>
       <use xlink:href="#meb9a59bfaf" x="110.526981" y="370.512" style="stroke: #000000; stroke-width: 0.8"/>
      </g>
     </g>
     <g id="text_1">
      <text style="font-size: 12px; font-family: 'Arial'; text-anchor: middle" x="110.526981" y="386.101375" transform="rotate(-0 110.526981 386.101375)">4k</text>
     </g>
    </g>
    <g id="xtick_2">
     <g id="line2d_2">
      <g>
       <use xlink:href="#meb9a59bfaf" x="221.886434" y="370.512" style="stroke: #000000; stroke-width: 0.8"/>
      </g>
     </g>
     <g id="text_2">
      <text style="font-size: 12px; font-family: 'Arial'; text-anchor: middle" x="221.886434" y="386.101375" transform="rotate(-0 221.886434 386.101375)">8k</text>
     </g>
    </g>
    <g id="xtick_3">
     <g id="line2d_3">
      <g>
       <use xlink:href="#meb9a59bfaf" x="333.245886" y="370.512" style="stroke: #000000; stroke-width: 0.8"/>
      </g>
     </g>
     <g id="text_3">
      <text style="font-size: 12px; font-family: 'Arial'; text-anchor: middle" x="333.245886" y="386.101375" transform="rotate(-0 333.245886 386.101375)">16k</text>
     </g>
    </g>
    <g id="xtick_4">
     <g id="line2d_4">
      <g>
       <use xlink:href="#meb9a59bfaf" x="444.605338" y="370.512" style="stroke: #000000; stroke-width: 0.8"/>
      </g>
     </g>
     <g id="text_4">
      <text style="font-size: 12px; font-family: 'Arial'; text-anchor: middle" x="444.605338" y="386.101375" transform="rotate(-0 444.605338 386.101375)">32k</text>
     </g>
    </g>
    <g id="xtick_5">
     <g id="line2d_5">
      <g>
       <use xlink:href="#meb9a59bfaf" x="555.96479" y="370.512" style="stroke: #000000; stroke-width: 0.8"/>
      </g>
     </g>
     <g id="text_5">
      <text style="font-size: 12px; font-family: 'Arial'; text-anchor: middle" x="555.96479" y="386.101375" transform="rotate(-0 555.96479 386.101375)">64k</text>
     </g>
    </g>
    <g id="xtick_6">
     <g id="line2d_6">
      <g>
       <use xlink:href="#meb9a59bfaf" x="667.324243" y="370.512" style="stroke: #000000; stroke-width: 0.8"/>
      </g>
     </g>
     <g id="text_6">
      <text style="font-size: 12px; font-family: 'Arial'; text-anchor: middle" x="667.324243" y="386.101375" transform="rotate(-0 667.324243 386.101375)">128k</text>
     </g>
    </g>
    <g id="text_7">
     <text style="font-size: 12px; font-family: 'Arial'; text-anchor: middle" x="388.8" y="401.222" transform="rotate(-0 388.8 401.222)">Configured context window (tokens; k = 1,024)</text>
    </g>
   </g>
   <g id="matplotlib.axis_2">
    <g id="ytick_1">
     <g id="line2d_7">
      <path d="M 93.6 370.512
L 684 370.512
" clip-path="url(#pdb03f1ae7f)" style="fill: none; stroke: #b0b0b0; stroke-opacity: 0.2; stroke-width: 0.8; stroke-linecap: square"/>
     </g>
     <g id="line2d_8">
      <defs>
       <path id="m32680c8937" d="M 0 0
L -3.5 0
" style="stroke: #000000; stroke-width: 0.8"/>
      </defs>
      <g>
       <use xlink:href="#m32680c8937" x="93.6" y="370.512" style="stroke: #000000; stroke-width: 0.8"/>
      </g>
     </g>
     <g id="text_8">
      <text style="font-size: 12px; font-family: 'Arial'; text-anchor: end" x="86.6" y="374.806688" transform="rotate(-0 86.6 374.806688)">0</text>
     </g>
    </g>
    <g id="ytick_2">
     <g id="line2d_9">
      <path d="M 93.6 314.605183
L 684 314.605183
" clip-path="url(#pdb03f1ae7f)" style="fill: none; stroke: #b0b0b0; stroke-opacity: 0.2; stroke-width: 0.8; stroke-linecap: square"/>
     </g>
     <g id="line2d_10">
      <g>
       <use xlink:href="#m32680c8937" x="93.6" y="314.605183" style="stroke: #000000; stroke-width: 0.8"/>
      </g>
     </g>
     <g id="text_9">
      <text style="font-size: 12px; font-family: 'Arial'; text-anchor: end" x="86.6" y="318.899871" transform="rotate(-0 86.6 318.899871)">20</text>
     </g>
    </g>
    <g id="ytick_3">
     <g id="line2d_11">
      <path d="M 93.6 258.698367
L 684 258.698367
" clip-path="url(#pdb03f1ae7f)" style="fill: none; stroke: #b0b0b0; stroke-opacity: 0.2; stroke-width: 0.8; stroke-linecap: square"/>
     </g>
     <g id="line2d_12">
      <g>
       <use xlink:href="#m32680c8937" x="93.6" y="258.698367" style="stroke: #000000; stroke-width: 0.8"/>
      </g>
     </g>
     <g id="text_10">
      <text style="font-size: 12px; font-family: 'Arial'; text-anchor: end" x="86.6" y="262.993054" transform="rotate(-0 86.6 262.993054)">40</text>
     </g>
    </g>
    <g id="ytick_4">
     <g id="line2d_13">
      <path d="M 93.6 202.79155
L 684 202.79155
" clip-path="url(#pdb03f1ae7f)" style="fill: none; stroke: #b0b0b0; stroke-opacity: 0.2; stroke-width: 0.8; stroke-linecap: square"/>
     </g>
     <g id="line2d_14">
      <g>
       <use xlink:href="#m32680c8937" x="93.6" y="202.79155" style="stroke: #000000; stroke-width: 0.8"/>
      </g>
     </g>
     <g id="text_11">
      <text style="font-size: 12px; font-family: 'Arial'; text-anchor: end" x="86.6" y="207.086238" transform="rotate(-0 86.6 207.086238)">60</text>
     </g>
    </g>
    <g id="ytick_5">
     <g id="line2d_15">
      <path d="M 93.6 146.884734
L 684 146.884734
" clip-path="url(#pdb03f1ae7f)" style="fill: none; stroke: #b0b0b0; stroke-opacity: 0.2; stroke-width: 0.8; stroke-linecap: square"/>
     </g>
     <g id="line2d_16">
      <g>
       <use xlink:href="#m32680c8937" x="93.6" y="146.884734" style="stroke: #000000; stroke-width: 0.8"/>
      </g>
     </g>
     <g id="text_12">
      <text style="font-size: 12px; font-family: 'Arial'; text-anchor: end" x="86.6" y="151.179421" transform="rotate(-0 86.6 151.179421)">80</text>
     </g>
    </g>
    <g id="text_13">
     <text style="font-size: 12px; font-family: 'Arial'; text-anchor: middle" x="66.86875" y="234.36" transform="rotate(-90 66.86875 234.36)">Seconds</text>
    </g>
   </g>
   <g id="line2d_17">
    <path d="M 110.526981 362.641951
L 221.886434 358.529527
L 333.245886 349.864752
L 444.605338 327.945744
" clip-path="url(#pdb03f1ae7f)" style="fill: none; stroke: #177e89; stroke-width: 2.5; stroke-linecap: square"/>
    <defs>
     <path id="maeb434dbe2" d="M 0 3
C 0.795609 3 1.55874 2.683901 2.12132 2.12132
C 2.683901 1.55874 3 0.795609 3 0
C 3 -0.795609 2.683901 -1.55874 2.12132 -2.12132
C 1.55874 -2.683901 0.795609 -3 0 -3
C -0.795609 -3 -1.55874 -2.683901 -2.12132 -2.12132
C -2.683901 -1.55874 -3 -0.795609 -3 0
C -3 0.795609 -2.683901 1.55874 -2.12132 2.12132
C -1.55874 2.683901 -0.795609 3 0 3
z
" style="stroke: #177e89"/>
    </defs>
    <g clip-path="url(#pdb03f1ae7f)">
     <use xlink:href="#maeb434dbe2" x="110.526981" y="362.641951" style="fill: #177e89; stroke: #177e89"/>
     <use xlink:href="#maeb434dbe2" x="221.886434" y="358.529527" style="fill: #177e89; stroke: #177e89"/>
     <use xlink:href="#maeb434dbe2" x="333.245886" y="349.864752" style="fill: #177e89; stroke: #177e89"/>
     <use xlink:href="#maeb434dbe2" x="444.605338" y="327.945744" style="fill: #177e89; stroke: #177e89"/>
    </g>
   </g>
   <g id="line2d_18">
    <path d="M 110.526981 364.556581
L 221.886434 358.458473
L 333.245886 346.103603
L 444.605338 319.251777
L 555.96479 258.73902
L 667.324243 110.891266
" clip-path="url(#pdb03f1ae7f)" style="fill: none; stroke: #c45932; stroke-width: 2.5; stroke-linecap: square"/>
    <defs>
     <path id="me0f476a45b" d="M 0 3
C 0.795609 3 1.55874 2.683901 2.12132 2.12132
C 2.683901 1.55874 3 0.795609 3 0
C 3 -0.795609 2.683901 -1.55874 2.12132 -2.12132
C 1.55874 -2.683901 0.795609 -3 0 -3
C -0.795609 -3 -1.55874 -2.683901 -2.12132 -2.12132
C -2.683901 -1.55874 -3 -0.795609 -3 0
C -3 0.795609 -2.683901 1.55874 -2.12132 2.12132
C -1.55874 2.683901 -0.795609 3 0 3
z
" style="stroke: #c45932"/>
    </defs>
    <g clip-path="url(#pdb03f1ae7f)">
     <use xlink:href="#me0f476a45b" x="110.526981" y="364.556581" style="fill: #c45932; stroke: #c45932"/>
     <use xlink:href="#me0f476a45b" x="221.886434" y="358.458473" style="fill: #c45932; stroke: #c45932"/>
     <use xlink:href="#me0f476a45b" x="333.245886" y="346.103603" style="fill: #c45932; stroke: #c45932"/>
     <use xlink:href="#me0f476a45b" x="444.605338" y="319.251777" style="fill: #c45932; stroke: #c45932"/>
     <use xlink:href="#me0f476a45b" x="555.96479" y="258.73902" style="fill: #c45932; stroke: #c45932"/>
     <use xlink:href="#me0f476a45b" x="667.324243" y="110.891266" style="fill: #c45932; stroke: #c45932"/>
    </g>
   </g>
   <g id="patch_3">
    <path d="M 93.6 370.512
L 93.6 98.208
" style="fill: none; stroke: #000000; stroke-width: 0.8; stroke-linejoin: miter; stroke-linecap: square"/>
   </g>
   <g id="patch_4">
    <path d="M 93.6 370.512
L 684 370.512
" style="fill: none; stroke: #000000; stroke-width: 0.8; stroke-linejoin: miter; stroke-linecap: square"/>
   </g>
   <g id="legend_1">
    <g id="line2d_19">
     <path d="M 103.5 78.058284
L 114.5 78.058284
L 125.5 78.058284
" style="fill: none; stroke: #177e89; stroke-width: 2.5; stroke-linecap: square"/>
     <g>
      <use xlink:href="#maeb434dbe2" x="114.5" y="78.058284" style="fill: #177e89; stroke: #177e89"/>
     </g>
    </g>
    <g id="text_14">
     <text style="font-size: 11px; font-family: 'Arial'; text-anchor: start" x="134.3" y="81.908284" transform="rotate(-0 134.3 81.908284)">RTX 3090</text>
    </g>
    <g id="line2d_20">
     <path d="M 205.631563 78.058284
L 216.631563 78.058284
L 227.631563 78.058284
" style="fill: none; stroke: #c45932; stroke-width: 2.5; stroke-linecap: square"/>
     <g>
      <use xlink:href="#me0f476a45b" x="216.631563" y="78.058284" style="fill: #c45932; stroke: #c45932"/>
     </g>
    </g>
    <g id="text_15">
     <text style="font-size: 11px; font-family: 'Arial'; text-anchor: start" x="236.431563" y="81.908284" transform="rotate(-0 236.431563 81.908284)">GB10 (Spark label)</text>
    </g>
   </g>
  </g>
  <g id="text_16">
   <text style="font-weight: 700; font-size: 19px; font-family: 'Arial'; text-anchor: start" x="93.6" y="22.527844" transform="rotate(-0 93.6 22.527844)">Time to first token vs context</text>
  </g>
  <g id="text_17">
   <text style="font-size: 11px; font-family: 'Arial'; text-anchor: start" x="93.6" y="44.64" transform="rotate(-0 93.6 44.64)">Gemma 3 12B Q4_K_M · unique-prefix suite · median of 5 repeats</text>
  </g>
  <g id="text_18">
   <text style="font-size: 10px; font-family: 'Arial'; text-anchor: start" x="93.6" y="435.24" transform="rotate(-0 93.6 435.24)">Five repeats per point; no measured 3090 points at 64k or 128k.</text>
  </g>
 </g>
 <defs>
  <clipPath id="pdb03f1ae7f">
   <rect x="93.6" y="98.208" width="590.4" height="272.304"/>
  </clipPath>
 </defs>
</svg>
